<svg xmlns="http://www.w3.org/2000/svg" width="546" height="166" aria-label="Ten touching buildings predicted as a single merged shape; pixel overlap stays high but the object count is wrong" role="img" viewBox="0 0 546 166"><rect width="546" height="166" x="0" y="0" fill="#fff" rx="10"/><text x="130" y="35" fill="#3a3a3a" font-family="system-ui,sans-serif" font-size="13" font-weight="600" text-anchor="middle">Ground truth</text><text x="416" y="35" fill="#3a3a3a" font-family="system-ui,sans-serif" font-size="13" font-weight="600" text-anchor="middle">Prediction</text><rect width="220" height="64" x="20" y="46" fill="#4c78a8" fill-opacity=".85"/><rect width="44" height="32" x="20" y="46" fill="none" stroke="#fff" stroke-width="1.5"/><rect width="44" height="32" x="64" y="46" fill="none" stroke="#fff" stroke-width="1.5"/><rect width="44" height="32" x="108" y="46" fill="none" stroke="#fff" stroke-width="1.5"/><rect width="44" height="32" x="152" y="46" fill="none" stroke="#fff" stroke-width="1.5"/><rect width="44" height="32" x="196" y="46" fill="none" stroke="#fff" stroke-width="1.5"/><rect width="44" height="32" x="20" y="78" fill="none" stroke="#fff" stroke-width="1.5"/><rect width="44" height="32" x="64" y="78" fill="none" stroke="#fff" stroke-width="1.5"/><rect width="44" height="32" x="108" y="78" fill="none" stroke="#fff" stroke-width="1.5"/><rect width="44" height="32" x="152" y="78" fill="none" stroke="#fff" stroke-width="1.5"/><rect width="44" height="32" x="196" y="78" fill="none" stroke="#fff" stroke-width="1.5"/><rect width="220" height="64" x="20" y="46" fill="none" stroke="#24486e" stroke-width="2"/><rect width="220" height="64" x="306" y="46" fill="#e06666" fill-opacity=".4" stroke="#c0392b" stroke-width="2.5" rx="4"/><rect width="44" height="32" x="306" y="46" fill="none" stroke="#b06a6a" stroke-dasharray="3 2" stroke-width="1"/><rect width="44" height="32" x="350" y="46" fill="none" stroke="#b06a6a" stroke-dasharray="3 2" stroke-width="1"/><rect width="44" height="32" x="394" y="46" fill="none" stroke="#b06a6a" stroke-dasharray="3 2" stroke-width="1"/><rect width="44" height="32" x="438" y="46" fill="none" stroke="#b06a6a" stroke-dasharray="3 2" stroke-width="1"/><rect width="44" height="32" x="482" y="46" fill="none" stroke="#b06a6a" stroke-dasharray="3 2" stroke-width="1"/><rect width="44" height="32" x="306" y="78" fill="none" stroke="#b06a6a" stroke-dasharray="3 2" stroke-width="1"/><rect width="44" height="32" x="350" y="78" fill="none" stroke="#b06a6a" stroke-dasharray="3 2" stroke-width="1"/><rect width="44" height="32" x="394" y="78" fill="none" stroke="#b06a6a" stroke-dasharray="3 2" stroke-width="1"/><rect width="44" height="32" x="438" y="78" fill="none" stroke="#b06a6a" stroke-dasharray="3 2" stroke-width="1"/><rect width="44" height="32" x="482" y="78" fill="none" stroke="#b06a6a" stroke-dasharray="3 2" stroke-width="1"/><text x="130" y="130" fill="#6a6a6a" font-family="system-ui,sans-serif" font-size="11" font-weight="400" text-anchor="middle">10 distinct buildings</text><text x="416" y="130" fill="#6a6a6a" font-family="system-ui,sans-serif" font-size="11" font-weight="400" text-anchor="middle">predicted as 1 merged shape</text><text x="273" y="152" fill="#b23b2e" font-family="system-ui,sans-serif" font-size="12.5" font-weight="600" text-anchor="middle">Pixel IoU can be ~98%, yet 1 object is found where there are 10.</text></svg>